<svg width="24" height="24" viewBox="0 0 24 24" fill="none" xmlns="http://www.w3.org/2000/svg">
<g clip-path="url(#clip0_0_96)">
<path fill-rule="evenodd" clip-rule="evenodd" d="M20.5949 4.45999C21.5421 4.71353 22.2865 5.45785 22.54 6.40501C22.9982 8.12001 23 11.7004 23 11.7004C23 11.7004 23 15.2807 22.54 16.9957C22.2865 17.9429 21.5421 18.6872 20.5949 18.9407C18.88 19.4007 12 19.4007 12 19.4007C12 19.4007 5.12001 19.4007 3.405 18.9407C2.45785 18.6872 1.71353 17.9429 1.45999 16.9957C1 15.2807 1 11.7004 1 11.7004C1 11.7004 1 8.12001 1.45999 6.40501C1.71353 5.45785 2.45785 4.71353 3.405 4.45999C5.12001 4 12 4 12 4C12 4 18.88 4 20.5949 4.45999ZM15.5134 11.7007L9.79788 15.0003V8.40101L15.5134 11.7007Z" stroke="black" stroke-width="0.75" stroke-linejoin="round"/>
<path d="M24.0057 6.22929C23.7289 5.20129 22.9184 4.39075 21.8904 4.11398C20.0123 3.59998 12.4999 3.59998 12.4999 3.59998C12.4999 3.59998 4.98762 3.59998 3.10954 4.09421C2.10131 4.37098 1.271 5.20129 0.994232 6.22929C0.5 8.10737 0.5 12.0019 0.5 12.0019C0.5 12.0019 0.5 15.9162 0.994232 17.7745C1.271 18.8025 2.08154 19.6131 3.10954 19.8899C5.00739 20.4039 12.4999 20.4039 12.4999 20.4039C12.4999 20.4039 20.0123 20.4039 21.8904 19.9096C22.9184 19.6329 23.7289 18.8223 24.0057 17.7943C24.4999 15.9162 24.4999 12.0217 24.4999 12.0217C24.4999 12.0217 24.5197 8.10737 24.0057 6.22929Z" fill="black"/>
<path d="M10.1079 15.5999L16.355 12.0019L10.1079 8.40393V15.5999Z" fill="white"/>
</g>
<defs>
<clipPath id="clip0_0_96">
<rect width="24" height="24" fill="white"/>
</clipPath>
</defs>
</svg>
